<svg xmlns="http://www.w3.org/2000/svg" viewBox="0 0 640 360" role="img" aria-hidden="true">
  <defs>
    <linearGradient id="bg" x1="0" y1="0" x2="1" y2="1">
      <stop offset="0%" stop-color="#f0a202" stop-opacity="0.22"/>
      <stop offset="100%" stop-color="#10151c" stop-opacity="0.85"/>
    </linearGradient>
  </defs>
  <rect width="640" height="360" rx="28" fill="url(#bg)"/>
  <rect x="18" y="18" width="604" height="324" rx="22" fill="none" stroke="#f0a202" stroke-opacity="0.35" stroke-width="2"/>
  
  <rect x="220" y="50" width="200" height="48" rx="12" fill="#f0a202"/>
  <line x1="320" y1="98" x2="320" y2="140" stroke="#f0a202" stroke-width="3"/>
  <line x1="160" y1="140" x2="480" y2="140" stroke="#f0a202" stroke-width="3"/>
  <line x1="160" y1="140" x2="160" y2="170" stroke="#f0a202" stroke-width="3"/>
  <line x1="320" y1="140" x2="320" y2="170" stroke="#f0a202" stroke-width="3"/>
  <line x1="480" y1="140" x2="480" y2="170" stroke="#f0a202" stroke-width="3"/>
  <rect x="90" y="170" width="140" height="42" rx="10" fill="#f0a202" fill-opacity="0.75"/>
  <rect x="250" y="170" width="140" height="42" rx="10" fill="#f0a202" fill-opacity="0.75"/>
  <rect x="410" y="170" width="140" height="42" rx="10" fill="#f0a202" fill-opacity="0.75"/>
  <rect x="100" y="250" width="55" height="55" rx="8" fill="#f0a202" fill-opacity="0.4"/>
  <rect x="165" y="250" width="55" height="55" rx="8" fill="#f0a202" fill-opacity="0.4"/>
  <rect x="260" y="250" width="55" height="55" rx="8" fill="#f0a202" fill-opacity="0.4"/>
  <rect x="325" y="250" width="55" height="55" rx="8" fill="#f0a202" fill-opacity="0.4"/>
  <rect x="420" y="250" width="55" height="55" rx="8" fill="#f0a202" fill-opacity="0.4"/>
  <rect x="485" y="250" width="55" height="55" rx="8" fill="#f0a202" fill-opacity="0.4"/>

</svg>
